# xmcd
#
# Track frame offsets:
#	150
#	13618
#	31162
#	43793
#	62755
#	80651
#	93840
#	110358
#	123259
#	136877
#	150633
#	170846
#
# Disc length: 2427 seconds
#
# Revision: 3
# Processed by: cddbd v1.5.2PL0 Copyright (c) Steve Scherf et al.
# Submitted via: EZCDAudioConverter 6.0.7.1
#
DISCID=9409790c
DTITLE=Joe Diffie - Homecoming
DYEAR=2010
DGENRE=Country
TTITLE0=Somehow Tonight
TTITLE1=Lonesome And Dry As A Bone
TTITLE2=Tall Cornstalk
TTITLE3=Fit For A King
TTITLE4=Route 5 Box 109
TTITLE5=Rainin' On Her Rubber Dolly (featuring The Grascals)
TTITLE6=I Know How It Feels
TTITLE7=Tennessee Tea
TTITLE8=Free And Easy
TTITLE9=Stormy Weather Once Again
TTITLE10='Til Death
TTITLE11=Hard To Handle
EXTD=
EXTT0=
EXTT1=
EXTT2=
EXTT3=
EXTT4=
EXTT5=
EXTT6=
EXTT7=
EXTT8=
EXTT9=
EXTT10=
EXTT11=
PLAYORDER=
